<svg width="44" height="32" viewBox="0 0 44 32" fill="none" xmlns="http://www.w3.org/2000/svg">
  <path d="M34.5 19.05V12.55H28V9.55H34.5V3.05H37.5V9.55H44V12.55H37.5V19.05H34.5ZM16 15C13.8 15 12 14.3 10.6 12.9C9.2 11.5 8.5 9.7 8.5 7.5C8.5 5.3 9.2 3.5 10.6 2.1C12 0.7 13.8 0 16 0C18.2 0 20 0.7 21.4 2.1C22.8 3.5 23.5 5.3 23.5 7.5C23.5 9.7 22.8 11.5 21.4 12.9C20 14.3 18.2 15 16 15ZM0 31.05V26.35C0 25.1833 0.3 24.125 0.9 23.175C1.5 22.225 2.33333 21.5167 3.4 21.05C5.9 19.95 8.125 19.175 10.075 18.725C12.025 18.275 14 18.05 16 18.05C18 18.05 19.975 18.275 21.925 18.725C23.875 19.175 26.0833 19.95 28.55 21.05C29.6167 21.55 30.4583 22.2667 31.075 23.2C31.6917 24.1333 32 25.1833 32 26.35V31.05H0ZM3 28.05H29V26.35C29 25.8167 28.8667 25.3083 28.6 24.825C28.3333 24.3417 27.9167 23.9833 27.35 23.75C25.0167 22.6167 23.025 21.8833 21.375 21.55C19.725 21.2167 17.9333 21.05 16 21.05C14.0667 21.05 12.275 21.225 10.625 21.575C8.975 21.925 6.96667 22.65 4.6 23.75C4.1 23.9833 3.70833 24.3417 3.425 24.825C3.14167 25.3083 3 25.8167 3 26.35V28.05ZM16 12C17.3 12 18.375 11.575 19.225 10.725C20.075 9.875 20.5 8.8 20.5 7.5C20.5 6.2 20.075 5.125 19.225 4.275C18.375 3.425 17.3 3 16 3C14.7 3 13.625 3.425 12.775 4.275C11.925 5.125 11.5 6.2 11.5 7.5C11.5 8.8 11.925 9.875 12.775 10.725C13.625 11.575 14.7 12 16 12Z" fill="#010101"/>
</svg>
