<svg width="34" height="39" viewBox="0 0 34 39" fill="none" xmlns="http://www.w3.org/2000/svg">
  <path d="M28.0897 20.4547C28.0708 17.3399 29.5296 14.9924 32.4755 13.2615C30.8279 10.9779 28.3352 9.72196 25.0494 9.4799C21.9382 9.24241 18.5343 11.2337 17.288 11.2337C15.9708 11.2337 12.9588 9.56211 10.5888 9.56211C5.69785 9.63519 0.5 13.3346 0.5 20.8612C0.5 23.0854 0.920172 25.3827 1.76051 27.7484C2.88412 30.8632 6.93476 38.4949 11.1601 38.3716C13.3695 38.3213 14.9322 36.8553 17.8073 36.8553C20.5974 36.8553 22.0421 38.3716 24.5064 38.3716C28.7695 38.3122 32.433 31.3747 33.5 28.2508C27.7828 25.643 28.0897 20.6146 28.0897 20.4547ZM23.1279 6.52497C25.5215 3.77556 25.3043 1.27277 25.2335 0.373047C23.1185 0.491792 20.673 1.76602 19.2803 3.33255C17.7459 5.01325 16.8442 7.09129 17.0378 9.43423C19.3227 9.60322 21.4094 8.466 23.1279 6.52497Z" fill="#252B42"/>
</svg>
