<svg width="22" height="25" viewBox="0 0 22 25" fill="none" xmlns="http://www.w3.org/2000/svg">
  <path d="M18.3324 10.6337C17.9532 10.2545 17.37 10.2545 16.9908 10.6337L11.9457 15.6787V1.79735C11.9457 1.27253 11.5084 0.834991 10.9834 0.834991C10.4585 0.834991 10.021 1.27235 10.021 1.79735V15.6787L5.00504 10.6337C4.62586 10.2545 4.04267 10.2545 3.66346 10.6337C3.28424 11.0128 3.28428 11.596 3.66346 11.9752L10.3417 18.6535C10.4291 18.7409 10.5459 18.7993 10.6625 18.8577C10.7501 18.9159 10.8669 18.9159 10.9835 18.9159C11.1 18.9159 11.2168 18.8868 11.3334 18.8284C11.4499 18.77 11.5667 18.7118 11.6542 18.6242L18.3324 11.9459C18.6825 11.6251 18.6825 11.0128 18.3326 10.6337L18.3324 10.6337Z" fill="black"/>
  <path d="M20.1113 24.165H1.85555C1.33073 24.165 0.893188 23.7276 0.893188 23.2026V17.0201C0.893188 16.4953 1.33054 16.0578 1.85555 16.0578C2.38037 16.0578 2.81792 16.4951 2.81792 17.0201V22.2694H19.1489V17.0201C19.1489 16.4953 19.5863 16.0578 20.1113 16.0578C20.6361 16.0578 21.0737 16.4951 21.0737 17.0201V23.2026C21.0444 23.7276 20.6361 24.165 20.1113 24.165Z" fill="black"/>
</svg>
