<svg width="14" height="13" viewBox="0 0 14 13" fill="none" xmlns="http://www.w3.org/2000/svg">
  <path d="M2.20202 12.8185H11.5424C11.8903 12.818 12.2238 12.6796 12.4698 12.4336C12.7158 12.1876 12.8541 11.8542 12.8547 11.5063V6.56403C12.8547 6.39867 12.7664 6.24582 12.6232 6.16314C12.4799 6.08036 12.3034 6.08036 12.1602 6.16314C12.0169 6.24582 11.9286 6.39867 11.9286 6.56403V11.5063C11.9284 11.6087 11.8877 11.7068 11.8154 11.7793C11.743 11.8516 11.6448 11.8923 11.5424 11.8924H2.20204C2.09972 11.8923 2.00154 11.8516 1.92921 11.7793C1.85676 11.7068 1.81604 11.6086 1.81594 11.5063V2.62579C1.81604 2.52347 1.85676 2.42529 1.92921 2.35295C2.00155 2.2805 2.09974 2.23979 2.20204 2.23968H7.37216C7.53762 2.23968 7.69047 2.15142 7.77315 2.00818C7.85584 1.86493 7.85584 1.68841 7.77315 1.54517C7.69047 1.40192 7.53762 1.31366 7.37216 1.31366H2.20204C1.85417 1.31407 1.52065 1.45246 1.27467 1.69844C1.02859 1.94441 0.890316 2.27791 0.889893 2.62581V11.5064C0.890306 11.8542 1.02859 12.1878 1.27467 12.4338C1.52064 12.6798 1.85415 12.8182 2.20204 12.8185L2.20202 12.8185Z" fill="black"/>
  <path d="M3.93735 8.03915L3.62708 9.58931H3.62719C3.58915 9.77803 3.63773 9.97377 3.75968 10.1228C3.88153 10.2718 4.06384 10.3582 4.25637 10.3583C4.29885 10.3582 4.34112 10.3541 4.38277 10.3458L5.93428 10.0356H5.93439C6.23257 9.97644 6.50643 9.8301 6.72151 9.61523L13.3196 3.01586C13.7197 2.58994 13.8681 1.98586 13.7111 1.42292C13.554 0.859974 13.114 0.420113 12.5511 0.263007C11.9882 0.105914 11.3841 0.254325 10.9582 0.654503L4.35803 7.25281C4.14286 7.46726 3.99651 7.74093 3.93759 8.039L3.93735 8.03915ZM4.84528 8.22022L4.84538 8.22011C4.86905 8.10178 4.92724 7.99305 5.0125 7.90759L11.6119 1.30823C11.8004 1.1223 12.0734 1.05047 12.329 1.11961C12.5846 1.18876 12.7843 1.38842 12.8534 1.64401C12.9224 1.89949 12.8507 2.17255 12.6648 2.36107L6.06542 8.9599C5.98005 9.04548 5.87112 9.10387 5.75248 9.12754L4.61902 9.35439L4.84528 8.22022Z" fill="black"/>
</svg>
