<svg width="296" height="296" viewBox="0 0 296 296" fill="none" xmlns="http://www.w3.org/2000/svg">
  <g clip-path="url(#clip0_3076_702)">
    <path fill-rule="evenodd" clip-rule="evenodd" d="M251.87 251.867C309.488 194.249 309.488 100.831 251.87 43.2135C194.252 -14.4045 100.834 -14.4045 43.2165 43.2135C-14.4014 100.831 -14.4014 194.249 43.2165 251.867C100.834 309.484 194.252 309.484 251.87 251.867ZM63.77 73.89L132.17 151.5C136.06 155.91 141.66 158.44 147.54 158.44C153.42 158.44 159.02 155.91 162.91 151.5L230.12 75.23C230.68 74.6 231.33 74.12 232.03 73.72C229.18 72.47 226.04 71.77 222.73 71.77H72.34C69.17 71.77 66.16 72.41 63.41 73.55C63.4606 73.6052 63.5154 73.6519 63.5705 73.6989C63.6353 73.7542 63.7006 73.8098 63.76 73.88L63.77 73.89ZM241.08 84.89C241.67 84.22 242.09 83.46 242.39 82.67H242.4C244.65 86.25 245.97 90.47 245.97 95.01V200.06C245.97 212.89 235.57 223.29 222.74 223.29H72.34C59.51 223.29 49.11 212.89 49.11 200.06V95.01C49.11 90.63 50.35 86.54 52.46 83.04C52.496 83.091 52.5302 83.142 52.5642 83.1927C52.6436 83.3111 52.722 83.428 52.82 83.54L121.22 161.16C127.88 168.71 137.47 173.04 147.54 173.04C157.61 173.04 167.2 168.71 173.86 161.16L241.08 84.89Z" fill="black"/>
  </g>
  <defs>
    <clipPath id="clip0_3076_702">
      <rect width="295.08" height="295.08" fill="white"/>
    </clipPath>
  </defs>
</svg>
