<svg xmlns="http://www.w3.org/2000/svg" width="46" height="62" viewBox="0 0 46 62" fill="none">
  <path d="M23.1538 12.2304C16.4336 12.2304 10.9626 17.6977 10.9626 24.4215C10.9626 31.1454 16.4299 36.6127 23.1538 36.6127C29.8776 36.6127 35.3449 31.1454 35.3449 24.4215C35.3449 17.6977 29.8776 12.2304 23.1538 12.2304Z" fill="#70ff00"/>
  <g clip-path="url(#clip0_3042_706)">
    <path d="M22.9678 11.5486C16.0602 11.5486 10.4368 17.1683 10.4368 24.0797C10.4368 30.991 16.0565 36.6107 22.9678 36.6107C29.8791 36.6107 35.4988 30.991 35.4988 24.0797C35.4988 17.1683 29.8791 11.5486 22.9678 11.5486Z" fill="#f62626"/>
    <path d="M23.1527 2.80298C10.7029 2.80298 0.609863 12.8961 0.609863 25.3459C0.609863 35.9613 16.9997 55.1675 21.8286 60.5957C22.5352 61.3894 23.7703 61.3894 24.4769 60.5957C29.3078 55.1675 45.6977 35.9613 45.6977 25.3459C45.6977 12.8961 35.6046 2.80298 23.1527 2.80298ZM23.1527 35.4106C17.0078 35.4106 12.0068 30.4096 12.0068 24.2647C12.0068 18.1197 17.0078 13.1188 23.1527 13.1188C29.2977 13.1188 34.2987 18.1197 34.2987 24.2647C34.2987 30.4096 29.2977 35.4106 23.1527 35.4106Z" fill="#ffffff"/>
  </g>
  <defs fill="#fff9f9">
    <clipPath id="clip0_3042_706" fill="#fff9f9">
      <rect width="45.0878" height="58.39" fill="white" transform="translate(0.609863 2.80298)"/>
    </clipPath>
  </defs>
</svg>