<svg width="296" height="296" viewBox="0 0 296 296" fill="none" xmlns="http://www.w3.org/2000/svg">
  <g clip-path="url(#clip0_3076_696)">
    <path fill-rule="evenodd" clip-rule="evenodd" d="M148.1 0C229.58 0 295.64 66.05 295.64 147.54L295.65 147.55C295.65 221.2 241.7 282.23 171.17 293.3V190.2H205.55L212.09 147.55H212.069L212.07 147.54H171.17V119.87C171.17 108.2 176.88 96.83 195.21 96.83H213.81V60.52C213.81 60.52 213.803 60.5189 213.79 60.5166V60.51C213.79 60.51 196.91 57.63 180.76 57.63C147.06 57.63 125.03 78.05 125.03 115.03V147.53H87.5701V190.18H87.5901V190.19H125.03V293.28C125.037 293.281 125.043 293.282 125.05 293.283V293.29C54.5101 282.22 0.560059 221.18 0.560059 147.54C0.560059 66.05 66.62 0 148.1 0Z" fill="black"/>
  </g>
  <defs>
    <clipPath id="clip0_3076_696">
      <rect width="295.08" height="295.08" fill="white" transform="translate(0.560059)"/>
    </clipPath>
  </defs>
</svg>
