<svg width="46" height="47" viewBox="0 0 46 47" fill="none" xmlns="http://www.w3.org/2000/svg">
  <path fill-rule="evenodd" clip-rule="evenodd" d="M22.3056 0.709489C22.0465 0.81681 21.6197 1.1776 21.3573 1.51116C20.9039 2.08749 20.8802 2.35278 20.8802 6.88102V11.6444L21.5014 12.3397C22.3804 13.3234 23.6196 13.3234 24.4986 12.3397L25.1198 11.6444V6.85447V2.0645L24.5062 1.39938C23.8272 0.663749 23.0239 0.411845 22.3056 0.709489ZM6.80559 7.3951C6.11298 8.08766 5.97531 8.87573 6.4006 9.71399C6.75449 10.4117 12.396 16.0828 13.1152 16.4641C14.0534 16.9612 14.8168 16.8566 15.5422 16.1312C16.2348 15.4386 16.3725 14.6506 15.9472 13.8123C15.5933 13.1146 9.95178 7.44351 9.23262 7.0622C8.29434 6.56508 7.531 6.66973 6.80559 7.3951ZM36.8343 6.9995C36.1375 7.37903 30.4821 13.0307 30.1249 13.7043C29.6278 14.6425 29.7324 15.4058 30.4578 16.1312C31.1504 16.8238 31.9385 16.9614 32.7768 16.5361C33.4746 16.1823 39.146 10.5411 39.5273 9.82199C40.0245 8.88376 39.9198 8.12046 39.1944 7.3951C38.5031 6.70387 37.6421 6.55951 36.8343 6.9995ZM0.757094 22.1099C-0.252365 23.012 -0.252365 24.1651 0.757094 25.0672L1.47469 25.7082H6.26494H11.0552L11.7505 25.0871C12.3056 24.5913 12.4458 24.2889 12.4458 23.5886C12.4458 22.8882 12.3056 22.5859 11.7505 22.0901L11.0552 21.4689H6.26494H1.47469L0.757094 22.1099ZM34.2495 22.0901C33.6944 22.5859 33.5542 22.8882 33.5542 23.5886C33.5542 24.2889 33.6944 24.5913 34.2495 25.0871L34.9448 25.7082H39.7351H44.5253L45.2429 25.0672C46.2524 24.1651 46.2524 23.012 45.2429 22.1099L44.5253 21.4689H39.7351H34.9448L34.2495 22.0901ZM13.1821 30.6504C12.4852 31.0299 6.82991 36.6815 6.47268 37.3552C5.97553 38.2934 6.08018 39.0567 6.80559 39.782C7.4982 40.4746 8.28631 40.6123 9.12463 40.187C9.82237 39.8331 15.4938 34.192 15.8751 33.4728C16.3722 32.5346 16.2676 31.7713 15.5422 31.046C14.8509 30.3547 13.9898 30.2104 13.1821 30.6504ZM30.4578 31.046C29.7652 31.7385 29.6275 32.5266 30.0528 33.3648C30.4067 34.0625 36.0482 39.7336 36.7674 40.1149C37.7057 40.6121 38.469 40.5074 39.1944 39.782C39.887 39.0895 40.0247 38.3014 39.5994 37.4631C39.2455 36.7654 33.604 31.0944 32.8848 30.7131C31.9466 30.2159 31.1832 30.3206 30.4578 31.046ZM22.5055 34.1413C22.2335 34.1824 21.7567 34.5182 21.4456 34.8879L20.8802 35.5597V40.3363V45.1126L21.5213 45.8302C22.4234 46.8396 23.5766 46.8396 24.4787 45.8302L25.1198 45.1126V40.3363C25.1198 35.5724 25.1182 35.5581 24.5644 34.8997C24.0001 34.2292 23.3967 34.007 22.5055 34.1413Z" fill="black"/>
</svg>
