<svg width="11" height="15" viewBox="0 0 11 15" fill="none" xmlns="http://www.w3.org/2000/svg">
  <path d="M5.1477 11.074V11.8149C5.1477 12.0109 5.3096 12.1726 5.50543 12.1726C5.71008 12.1726 5.86708 12.0097 5.86708 11.8149V11.074C6.12738 11.0106 6.34866 10.878 6.53588 10.6947C6.79128 10.4354 6.96181 10.0776 6.96181 9.67206C6.96181 9.27141 6.79225 8.90977 6.53588 8.64944C6.26676 8.38522 5.9051 8.22839 5.50444 8.22839C5.1126 8.22839 4.74703 8.38539 4.48282 8.64944C4.2186 8.90876 4.05688 9.2714 4.05688 9.67206C4.05688 10.0766 4.21878 10.4344 4.48282 10.6947C4.66218 10.8781 4.8923 11.0097 5.1477 11.074ZM4.99462 9.15651C5.12241 9.02873 5.31041 8.94403 5.50545 8.94403C5.7101 8.94403 5.88864 9.02987 6.0251 9.15651C6.15288 9.28903 6.23758 9.4723 6.23758 9.67223C6.23758 9.87216 6.15272 10.0602 6.0251 10.188C5.89356 10.3157 5.71894 10.3965 5.52212 10.4004H5.48883C5.30164 10.3965 5.12228 10.3156 4.99467 10.188C4.86313 10.0602 4.78218 9.87216 4.78218 9.67223C4.78218 9.4723 4.86313 9.28904 4.99467 9.15651H4.99462Z" fill="black"/>
  <path d="M8.19715 1.83251C7.50696 1.14233 6.55357 0.712463 5.50567 0.712463C4.48405 0.712463 3.53847 1.12976 2.85697 1.80231L2.81405 1.8325C2.12387 2.52268 1.694 3.48001 1.694 4.52398V6.09152L1.5876 6.09168C1.18694 6.09168 0.830186 6.25357 0.564974 6.52251V6.52642C0.300756 6.79064 0.139038 7.14838 0.139038 7.54411V12.855C0.139038 13.2557 0.300932 13.6213 0.564974 13.8815C0.829192 14.1497 1.18694 14.3075 1.5876 14.3075H9.42448C9.79885 14.3075 10.1488 14.1671 10.412 13.9196L10.4549 13.8815C10.7103 13.6212 10.8809 13.2557 10.8809 12.855V7.5441C10.8809 7.14834 10.7103 6.79062 10.4549 6.52248C10.1868 6.25337 9.82515 6.09166 9.42449 6.09166H9.32216V4.52315C9.32216 3.47998 8.89606 2.52169 8.19723 1.83251L8.19715 1.83251ZM2.89499 4.52315C2.89499 3.80769 3.19723 3.15243 3.6661 2.68359L3.6914 2.6534C4.15928 2.19709 4.80752 1.91249 5.50552 1.91249C6.2298 1.91249 6.87704 2.20592 7.35474 2.6836C7.82262 3.15149 8.11703 3.80754 8.11703 4.52317V6.09071H2.89509L2.89499 4.52315ZM9.42461 7.29167C9.49283 7.29167 9.55615 7.32578 9.60299 7.3687C9.6459 7.41946 9.67512 7.47984 9.67512 7.54316V12.8541C9.67512 12.9223 9.64591 12.9866 9.60299 13.0325L9.58634 13.0491C9.5395 13.0832 9.48401 13.0999 9.42445 13.0999L1.58798 13.0997C1.52858 13.0997 1.4602 13.0793 1.41744 13.0315C1.36669 12.9846 1.34139 12.9203 1.34139 12.8531V7.54218C1.34139 7.46907 1.36669 7.41065 1.41744 7.36772C1.46036 7.3248 1.52858 7.29069 1.58798 7.29069H9.42486L9.42461 7.29167Z" fill="black"/>
</svg>
