<svg width="197" height="84" viewBox="0 0 197 84" fill="none" xmlns="http://www.w3.org/2000/svg">
  <g clip-path="url(#clip0_1460_2123)">
    <path d="M99.4235 22.9977H111.776C118.763 22.9977 121.167 26.2372 121.167 30.2974C121.167 34.9926 117.113 36.3341 115.497 36.5339C118.05 36.7694 122.179 38.1537 122.179 43.0416C122.179 47.9294 117.819 50.855 112.414 50.855H99.4167V22.9977H99.4235ZM110.73 34.0079C112.156 34.0079 114.675 33.8866 114.675 31.011C114.675 28.328 112.462 28.2067 111.185 28.2067H105.739V34.0079H110.737H110.73ZM110.356 45.8102C112.495 45.8102 115.463 45.6889 115.463 42.4921C115.463 39.1384 112.794 39.0599 111.443 39.0599H105.732V45.8102H110.35H110.356Z" fill="#010101"/>
    <path d="M136.602 50.862V48.9283C136.079 49.7203 134.124 51.4543 130.891 51.4543C126.572 51.4543 124.732 49.1638 124.732 44.0761V30.2616H130.552V43.4838C130.552 44.8681 131 46.5236 133.329 46.5236C135.658 46.5236 136.636 45.0251 136.636 43.1271V30.2616H142.381V50.862H136.595H136.602Z" fill="#010101"/>
    <path d="M151.847 22.9977H146.102V50.8622H151.847V22.9977Z" fill="#010101"/>
    <path d="M161.687 22.9977H155.942V50.8622H161.687V22.9977Z" fill="#010101"/>
    <path d="M165.944 22.9977H171.689V27.6929H165.944V22.9977ZM165.944 30.2617H171.689V50.8622H165.944V30.2617Z" fill="#010101"/>
    <path d="M176.545 50.862V35.5419H173.699V30.2473H176.545V22.8263H182.249V30.283H185.372V35.5847H182.249V50.862" fill="#010101"/>
    <path d="M187.498 50.8907V35.5777H184.653V30.276H187.498V22.8621H193.202V30.3117H196.326V35.6134H193.202V50.8907" fill="#010101"/>
    <path d="M39.9582 83.8998C32.57 83.8998 25.3855 81.7591 19.1449 77.6918L2.92894 76.4574L4.57227 61.0017C1.80849 55.2361 0.348511 48.7784 0.348511 42.2779C0.348511 19.3298 18.1195 0.656006 39.9582 0.656006C61.7968 0.656006 79.5678 19.3298 79.5678 42.2779C79.5678 65.226 61.7968 83.8998 39.9582 83.8998ZM7.954 72.0761L20.6049 73.0394L21.087 73.3677C26.7165 77.1495 33.2422 79.1475 39.9582 79.1475C59.3046 79.1475 75.0453 62.6072 75.0453 42.2779C75.0453 21.9486 59.3046 5.41544 39.9582 5.41544C20.6117 5.41544 4.87785 21.9486 4.87785 42.2779C4.87785 48.2575 6.26993 54.1943 8.90468 59.4461L9.23063 60.0955L7.954 72.0761Z" fill="#E3602C"/>
    <path fill-rule="evenodd" clip-rule="evenodd" d="M51.7942 44.6898L40.1687 57.1485C40.1212 57.1984 40.0397 57.1984 39.9921 57.1485L28.1765 44.4971C28.1425 44.4543 28.1357 44.3972 28.1629 44.3544L31.8434 38.4961C31.8774 38.4461 31.9317 38.4247 31.986 38.4461C34.417 39.438 37.1197 39.9874 39.9582 39.9874C42.7967 39.9874 45.6283 39.4094 48.1001 38.3748C48.1545 38.3534 48.2156 38.3748 48.2495 38.4247L51.8146 44.5399C51.8418 44.5827 51.835 44.6398 51.801 44.6826M59.0806 22.8477H53.5462C53.4783 22.8477 53.424 22.9048 53.424 22.969C53.3493 29.177 47.3396 34.2004 39.965 34.2004C32.5904 34.2004 26.5807 29.1698 26.506 22.969C26.506 22.9048 26.4517 22.8477 26.3838 22.8477H20.8494C20.7815 22.8477 20.7272 22.9048 20.7272 22.969C20.7679 27.8569 23.1175 32.2667 26.8523 35.3778C26.8998 35.4135 26.9134 35.4848 26.8795 35.5348L20.9105 45.0465C20.8834 45.0965 20.8901 45.1536 20.9241 45.1964L40.0057 65.6256C40.0533 65.6755 40.1347 65.6755 40.1823 65.6256L58.9651 45.4961C58.9991 45.4533 59.0059 45.3962 58.9787 45.3534L53.1931 35.4206C53.1659 35.3707 53.1727 35.3065 53.2203 35.2636C56.8736 32.1668 59.1688 27.807 59.2096 22.9762C59.2096 22.9048 59.1553 22.8549 59.0873 22.8549" fill="#E3602C"/>
    <path d="M102.181 65.1181C101.644 65.1181 101.155 65.0253 100.727 64.8326C100.3 64.6471 99.9464 64.376 99.6612 64.0263C99.376 63.6767 99.1995 63.2628 99.1112 62.7847L99.9125 62.642C100.042 63.17 100.313 63.5768 100.727 63.8765C101.142 64.1762 101.637 64.326 102.208 64.326C102.588 64.326 102.928 64.2618 103.226 64.1405C103.525 64.012 103.763 63.8336 103.933 63.6053C104.102 63.377 104.191 63.0987 104.191 62.7776C104.191 62.5706 104.157 62.3923 104.082 62.2424C104.007 62.0926 103.919 61.9713 103.797 61.8714C103.681 61.7715 103.552 61.693 103.41 61.6287C103.267 61.5645 103.138 61.5074 103.002 61.4718L101.053 60.8581C100.816 60.7868 100.598 60.694 100.401 60.587C100.204 60.4799 100.028 60.3443 99.8785 60.1874C99.7292 60.0304 99.6137 59.852 99.5322 59.6379C99.4507 59.431 99.41 59.1884 99.41 58.9172C99.41 58.4606 99.5254 58.0681 99.7495 57.7327C99.9736 57.3973 100.293 57.1405 100.687 56.9621C101.08 56.7837 101.535 56.6981 102.038 56.6981C102.554 56.6981 103.009 56.7908 103.416 56.9835C103.824 57.1761 104.157 57.4473 104.421 57.8041C104.686 58.1609 104.863 58.5747 104.944 59.0599L104.123 59.2169C104.068 58.8673 103.946 58.5604 103.756 58.3036C103.566 58.0467 103.321 57.8469 103.023 57.7042C102.724 57.5615 102.398 57.4901 102.038 57.4901C101.692 57.4901 101.386 57.5543 101.114 57.6756C100.843 57.7969 100.632 57.9611 100.476 58.1751C100.32 58.3821 100.238 58.6247 100.238 58.8958C100.238 59.167 100.313 59.3882 100.456 59.5523C100.598 59.7164 100.775 59.8449 100.992 59.9376C101.203 60.0304 101.413 60.1089 101.61 60.166L103.118 60.6298C103.274 60.6726 103.457 60.7368 103.674 60.8224C103.885 60.9081 104.096 61.0294 104.292 61.1792C104.489 61.3291 104.659 61.536 104.795 61.7857C104.931 62.0355 104.992 62.3566 104.992 62.7419C104.992 63.1272 104.924 63.4483 104.781 63.748C104.639 64.0477 104.442 64.2903 104.191 64.4973C103.939 64.6971 103.641 64.854 103.294 64.9611C102.955 65.0681 102.581 65.1181 102.181 65.1181Z" fill="#010101"/>
    <path d="M107.756 65.1189C107.321 65.1189 106.954 65.0333 106.662 64.8692C106.37 64.7051 106.146 64.4839 106.004 64.2127C105.861 63.9416 105.786 63.6419 105.786 63.3208C105.786 62.9997 105.847 62.7071 105.977 62.4788C106.106 62.2504 106.275 62.0506 106.493 61.9008C106.71 61.7509 106.968 61.6368 107.253 61.5583C107.545 61.4798 107.871 61.4156 108.224 61.3585C108.577 61.3014 108.924 61.2514 109.27 61.2086C109.609 61.1658 109.908 61.123 110.166 61.0802L109.888 61.2586C109.901 60.6592 109.786 60.2168 109.555 59.9242C109.324 59.6388 108.924 59.489 108.346 59.489C107.953 59.489 107.62 59.5817 107.341 59.7672C107.07 59.9528 106.88 60.2525 106.764 60.6521L105.997 60.4166C106.126 59.8743 106.398 59.4533 106.791 59.1536C107.192 58.8539 107.708 58.704 108.346 58.704C108.876 58.704 109.324 58.8111 109.691 59.018C110.058 59.2249 110.323 59.5246 110.472 59.9171C110.547 60.0955 110.587 60.2881 110.615 60.5093C110.642 60.7305 110.648 60.9446 110.648 61.173V64.9405H109.949V63.4207L110.153 63.5134C109.956 64.0343 109.65 64.4339 109.236 64.7051C108.822 64.9762 108.326 65.1118 107.749 65.1118L107.756 65.1189ZM107.844 64.4054C108.211 64.4054 108.53 64.334 108.808 64.1984C109.08 64.0629 109.304 63.8702 109.474 63.6276C109.643 63.385 109.752 63.1138 109.8 62.807C109.84 62.6143 109.868 62.4003 109.868 62.1648C109.868 61.9293 109.868 61.7581 109.868 61.6368L110.166 61.8009C109.901 61.8366 109.609 61.8794 109.297 61.9151C108.985 61.9507 108.679 61.9935 108.38 62.0435C108.082 62.0934 107.81 62.1505 107.566 62.2147C107.403 62.2647 107.246 62.3289 107.09 62.4217C106.934 62.5073 106.812 62.6286 106.71 62.7713C106.615 62.914 106.561 63.0996 106.561 63.3136C106.561 63.492 106.601 63.6633 106.69 63.8274C106.771 63.9915 106.907 64.1271 107.097 64.2341C107.287 64.3412 107.532 64.3982 107.844 64.3982V64.4054Z" fill="#010101"/>
    <path d="M111.402 59.5888V58.8824H115.191V59.5888H111.402ZM115.191 64.9477C114.865 65.019 114.546 65.0476 114.234 65.0333C113.922 65.019 113.636 64.9477 113.392 64.8192C113.147 64.6908 112.957 64.491 112.828 64.227C112.726 63.9986 112.665 63.7774 112.658 63.542C112.652 63.3136 112.645 63.0496 112.645 62.7499V57.1913H113.426V62.7142C113.426 62.9711 113.426 63.178 113.433 63.3493C113.433 63.5206 113.473 63.6704 113.541 63.7988C113.67 64.0486 113.874 64.1984 114.152 64.2484C114.431 64.2983 114.777 64.2841 115.191 64.2127V64.9405V64.9477Z" fill="#010101"/>
    <path d="M118.553 65.1189C117.989 65.1189 117.5 64.9904 117.093 64.7264C116.678 64.4624 116.359 64.0985 116.135 63.6204C115.904 63.1423 115.796 62.5857 115.796 61.9435C115.796 61.3013 115.911 60.7091 116.135 60.2239C116.359 59.7386 116.679 59.3676 117.086 59.1036C117.493 58.8396 117.976 58.7111 118.532 58.7111C119.089 58.7111 119.592 58.8467 119.992 59.125C120.393 59.4033 120.699 59.7957 120.909 60.3095C121.113 60.8233 121.208 61.4369 121.194 62.1433H120.393V61.8508C120.379 61.0659 120.216 60.4736 119.911 60.0669C119.605 59.6673 119.15 59.4675 118.559 59.4675C117.969 59.4675 117.466 59.6816 117.133 60.1026C116.801 60.5236 116.638 61.1301 116.638 61.915C116.638 62.6999 116.801 63.2708 117.133 63.6918C117.466 64.1128 117.928 64.3268 118.539 64.3268C118.953 64.3268 119.313 64.2269 119.626 64.0271C119.931 63.8273 120.176 63.5348 120.352 63.1566L121.086 63.4563C120.855 63.9843 120.522 64.3911 120.081 64.6836C119.639 64.9762 119.137 65.1189 118.573 65.1189H118.553ZM116.346 62.1433V61.4512H120.76V62.1433H116.346Z" fill="#010101"/>
    <path d="M122.471 64.9476V56.6846H123.259V64.9476H122.471Z" fill="#010101"/>
    <path d="M124.963 64.9476V56.6846H125.751V64.9476H124.963Z" fill="#010101"/>
    <path d="M127.462 57.7266V56.799H128.25V57.7266H127.462ZM127.462 64.9479V58.8826H128.25V64.9479H127.462Z" fill="#010101"/>
    <path d="M129.214 59.5888V58.8824H133.003V59.5888H129.214ZM133.003 64.9477C132.677 65.019 132.358 65.0476 132.046 65.0333C131.733 65.019 131.448 64.9477 131.204 64.8192C130.959 64.6908 130.769 64.491 130.64 64.227C130.538 63.9986 130.477 63.7774 130.47 63.542C130.463 63.3136 130.457 63.0496 130.457 62.7499V57.1913H131.238V62.7142C131.238 62.9711 131.238 63.178 131.244 63.3493C131.244 63.5206 131.285 63.6704 131.353 63.7988C131.482 64.0486 131.686 64.1984 131.964 64.2484C132.243 64.2983 132.589 64.2841 133.003 64.2127V64.9405V64.9477Z" fill="#010101"/>
    <path d="M136.365 65.1189C135.801 65.1189 135.312 64.9904 134.905 64.7264C134.49 64.4624 134.171 64.0985 133.947 63.6204C133.716 63.1423 133.608 62.5857 133.608 61.9435C133.608 61.3013 133.723 60.7091 133.947 60.2239C134.171 59.7386 134.49 59.3676 134.898 59.1036C135.305 58.8396 135.787 58.7111 136.344 58.7111C136.901 58.7111 137.403 58.8467 137.804 59.125C138.205 59.4033 138.51 59.7957 138.721 60.3095C138.925 60.8233 139.02 61.4369 139.006 62.1433H138.205V61.8508C138.191 61.0659 138.028 60.4736 137.723 60.0669C137.417 59.6673 136.962 59.4675 136.371 59.4675C135.781 59.4675 135.278 59.6816 134.945 60.1026C134.613 60.5236 134.45 61.1301 134.45 61.915C134.45 62.6999 134.613 63.2708 134.945 63.6918C135.278 64.1128 135.74 64.3268 136.351 64.3268C136.765 64.3268 137.125 64.2269 137.437 64.0271C137.743 63.8273 137.987 63.5348 138.164 63.1566L138.897 63.4563C138.667 63.9843 138.334 64.3911 137.892 64.6836C137.451 64.9762 136.949 65.1189 136.385 65.1189H136.365ZM134.158 62.1433V61.4512H138.571V62.1433H134.158Z" fill="#010101"/>
    <path d="M142.313 64.9478V56.8561H143.033L146.062 63.6634L149.07 56.8561H149.803V64.9407H149.056V58.6971L146.313 64.9478H145.803L143.067 58.6971V64.9478H142.313Z" fill="#010101"/>
    <path d="M153.748 65.1189C153.185 65.1189 152.696 64.9904 152.288 64.7264C151.874 64.4624 151.555 64.0985 151.331 63.6204C151.1 63.1423 150.991 62.5857 150.991 61.9435C150.991 61.3013 151.107 60.7091 151.331 60.2239C151.555 59.7386 151.874 59.3676 152.282 59.1036C152.689 58.8396 153.171 58.7111 153.728 58.7111C154.285 58.7111 154.787 58.8467 155.188 59.125C155.589 59.4033 155.894 59.7957 156.105 60.3095C156.309 60.8233 156.404 61.4369 156.39 62.1433H155.589V61.8508C155.575 61.0659 155.412 60.4736 155.107 60.0669C154.801 59.6673 154.346 59.4675 153.755 59.4675C153.164 59.4675 152.662 59.6816 152.329 60.1026C151.996 60.5236 151.833 61.1301 151.833 61.915C151.833 62.6999 151.996 63.2708 152.329 63.6918C152.662 64.1128 153.124 64.3268 153.735 64.3268C154.149 64.3268 154.509 64.2269 154.821 64.0271C155.127 63.8273 155.371 63.5348 155.548 63.1566L156.281 63.4563C156.05 63.9843 155.718 64.3911 155.276 64.6836C154.835 64.9762 154.332 65.1189 153.769 65.1189H153.748ZM151.541 62.1433V61.4512H155.955V62.1433H151.541Z" fill="#010101"/>
    <path d="M159.711 65.1118C159.032 65.1118 158.475 64.9548 158.04 64.648C157.606 64.3412 157.334 63.913 157.239 63.3636L158.04 63.2209C158.128 63.5634 158.319 63.8417 158.624 64.0415C158.93 64.2484 159.303 64.3483 159.758 64.3483C160.213 64.3483 160.539 64.2484 160.797 64.0557C161.048 63.8631 161.177 63.5991 161.177 63.2637C161.177 63.0782 161.137 62.9212 161.055 62.807C160.974 62.6857 160.811 62.5787 160.566 62.4788C160.322 62.3789 159.955 62.2576 159.466 62.122C158.943 61.9721 158.529 61.8223 158.237 61.6724C157.938 61.5226 157.728 61.3513 157.606 61.1515C157.483 60.9518 157.415 60.7163 157.415 60.4309C157.415 60.0883 157.51 59.7815 157.694 59.5246C157.877 59.2606 158.135 59.0608 158.461 58.9181C158.787 58.7754 159.167 58.704 159.609 58.704C160.05 58.704 160.43 58.7754 160.777 58.9252C161.123 59.0751 161.395 59.282 161.605 59.546C161.816 59.8101 161.938 60.124 161.979 60.4737L161.177 60.6235C161.123 60.2667 160.953 59.9884 160.675 59.7744C160.39 59.5674 160.03 59.4604 159.595 59.4533C159.188 59.439 158.855 59.5246 158.597 59.6959C158.339 59.8671 158.21 60.1026 158.21 60.388C158.21 60.5522 158.257 60.6877 158.352 60.8019C158.448 60.9161 158.611 61.0231 158.855 61.123C159.099 61.2229 159.446 61.3371 159.901 61.4512C160.43 61.594 160.851 61.7438 161.15 61.9008C161.456 62.0578 161.666 62.2433 161.795 62.4574C161.924 62.6714 161.985 62.9354 161.985 63.2494C161.985 63.8203 161.782 64.2698 161.381 64.598C160.974 64.9263 160.417 65.0904 159.711 65.0904V65.1118Z" fill="#010101"/>
    <path d="M165.32 65.1118C164.641 65.1118 164.084 64.9548 163.649 64.648C163.215 64.3412 162.943 63.913 162.848 63.3636L163.649 63.2209C163.737 63.5634 163.928 63.8417 164.233 64.0415C164.539 64.2484 164.912 64.3483 165.367 64.3483C165.822 64.3483 166.148 64.2484 166.406 64.0557C166.657 63.8631 166.786 63.5991 166.786 63.2637C166.786 63.0782 166.746 62.9212 166.664 62.807C166.583 62.6857 166.42 62.5787 166.175 62.4788C165.931 62.3789 165.564 62.2576 165.075 62.122C164.552 61.9721 164.138 61.8223 163.846 61.6724C163.547 61.5226 163.337 61.3513 163.215 61.1515C163.092 60.9518 163.024 60.7163 163.024 60.4309C163.024 60.0883 163.12 59.7815 163.303 59.5246C163.486 59.2606 163.744 59.0608 164.07 58.9181C164.396 58.7754 164.776 58.704 165.218 58.704C165.659 58.704 166.039 58.7754 166.386 58.9252C166.732 59.0751 167.004 59.282 167.214 59.546C167.425 59.8101 167.547 60.124 167.588 60.4737L166.786 60.6235C166.732 60.2667 166.562 59.9884 166.284 59.7744C165.999 59.5674 165.639 59.4604 165.204 59.4533C164.797 59.439 164.464 59.5246 164.206 59.6959C163.948 59.8671 163.819 60.1026 163.819 60.388C163.819 60.5522 163.866 60.6877 163.962 60.8019C164.057 60.9161 164.22 61.0231 164.464 61.123C164.709 61.2229 165.055 61.3371 165.51 61.4512C166.039 61.594 166.461 61.7438 166.759 61.9008C167.065 62.0578 167.275 62.2433 167.404 62.4574C167.533 62.6714 167.595 62.9354 167.595 63.2494C167.595 63.8203 167.391 64.2698 166.99 64.598C166.583 64.9263 166.026 65.0904 165.32 65.0904V65.1118Z" fill="#010101"/>
    <path d="M171.228 65.1189C170.664 65.1189 170.175 64.9904 169.768 64.7264C169.353 64.4624 169.034 64.0985 168.81 63.6204C168.579 63.1423 168.471 62.5857 168.471 61.9435C168.471 61.3013 168.586 60.7091 168.81 60.2239C169.034 59.7386 169.353 59.3676 169.761 59.1036C170.168 58.8396 170.65 58.7111 171.207 58.7111C171.764 58.7111 172.266 58.8467 172.667 59.125C173.068 59.4033 173.373 59.7957 173.584 60.3095C173.788 60.8233 173.883 61.4369 173.869 62.1433H173.068V61.8508C173.054 61.0659 172.891 60.4736 172.586 60.0669C172.28 59.6673 171.825 59.4675 171.234 59.4675C170.644 59.4675 170.141 59.6816 169.808 60.1026C169.476 60.5236 169.313 61.1301 169.313 61.915C169.313 62.6999 169.476 63.2708 169.808 63.6918C170.141 64.1128 170.603 64.3268 171.214 64.3268C171.628 64.3268 171.988 64.2269 172.3 64.0271C172.606 63.8273 172.85 63.5348 173.027 63.1566L173.76 63.4563C173.53 63.9843 173.197 64.3911 172.755 64.6836C172.314 64.9762 171.811 65.1189 171.248 65.1189H171.228ZM169.021 62.1433V61.4512H173.434V62.1433H169.021Z" fill="#010101"/>
    <path d="M174.867 64.9476V58.8824H175.58V60.3737H175.662V64.9476H174.867ZM179.044 64.9476V61.8508C179.044 61.5154 179.016 61.2014 178.955 60.9232C178.894 60.6377 178.799 60.3951 178.663 60.1811C178.527 59.967 178.358 59.8029 178.147 59.6887C177.937 59.5745 177.679 59.5174 177.373 59.5174C177.095 59.5174 176.85 59.5674 176.64 59.6673C176.429 59.7672 176.253 59.917 176.103 60.1026C175.961 60.2881 175.852 60.5236 175.777 60.7876C175.703 61.0516 175.662 61.3656 175.662 61.7081L175.105 61.5796C175.105 60.9588 175.207 60.4379 175.417 60.0098C175.621 59.5888 175.906 59.2677 176.273 59.0465C176.64 58.8324 177.054 58.7183 177.522 58.7183C177.869 58.7183 178.168 58.7753 178.426 58.8895C178.684 59.0037 178.901 59.1535 179.084 59.3462C179.268 59.5389 179.41 59.7529 179.519 60.0027C179.628 60.2453 179.709 60.5093 179.757 60.7804C179.804 61.0587 179.831 61.3299 179.831 61.601V64.9405H179.037L179.044 64.9476Z" fill="#010101"/>
    <path d="M183.464 65.1189C182.928 65.1189 182.466 64.9762 182.086 64.6979C181.705 64.4125 181.413 64.0343 181.21 63.5491C181.006 63.0638 180.904 62.5215 180.904 61.915C180.904 61.3085 181.006 60.7662 181.203 60.2881C181.407 59.8029 181.692 59.4247 182.072 59.1393C182.452 58.8538 182.901 58.7183 183.43 58.7183C183.96 58.7183 184.428 58.8538 184.802 59.1321C185.175 59.4104 185.454 59.7886 185.644 60.2667C185.834 60.7448 185.929 61.2942 185.929 61.9079C185.929 62.5215 185.834 63.0567 185.644 63.5419C185.454 64.0271 185.175 64.4125 184.809 64.6907C184.442 64.9762 183.994 65.1117 183.464 65.1117V65.1189ZM183.518 67.8161C183.22 67.8161 182.928 67.7733 182.643 67.6806C182.357 67.5878 182.092 67.4451 181.848 67.2453C181.604 67.0455 181.4 66.7957 181.237 66.4746L181.95 66.0608C182.113 66.3962 182.337 66.6388 182.629 66.7886C182.921 66.9385 183.213 67.0098 183.518 67.0098C183.933 67.0098 184.272 66.9313 184.53 66.7672C184.788 66.6031 184.978 66.3605 185.094 66.0465C185.209 65.7254 185.27 65.333 185.264 64.8549V63.2351H185.352V58.8824H186.051V64.8691C186.051 65.0404 186.051 65.2045 186.038 65.3686C186.031 65.5256 186.011 65.6826 185.99 65.8396C185.922 66.2963 185.78 66.6673 185.569 66.9599C185.359 67.2524 185.08 67.4665 184.734 67.6092C184.388 67.7519 183.98 67.8233 183.512 67.8233L183.518 67.8161ZM183.546 64.3482C183.953 64.3482 184.293 64.2412 184.564 64.0343C184.836 63.8273 185.033 63.5348 185.162 63.1637C185.291 62.7927 185.359 62.3788 185.359 61.9079C185.359 61.4369 185.291 61.0088 185.162 60.6449C185.033 60.281 184.829 59.9955 184.564 59.7886C184.299 59.5817 183.967 59.4818 183.559 59.4818C183.152 59.4818 182.805 59.5888 182.534 59.8029C182.262 60.0169 182.065 60.3095 181.929 60.6734C181.794 61.0373 181.733 61.4512 181.733 61.9079C181.733 62.3645 181.8 62.7855 181.936 63.1495C182.072 63.5134 182.269 63.8131 182.541 64.02C182.805 64.2341 183.145 64.3411 183.546 64.3411V64.3482Z" fill="#010101"/>
    <path d="M190.004 65.1189C189.44 65.1189 188.951 64.9904 188.544 64.7264C188.129 64.4624 187.81 64.0985 187.586 63.6204C187.355 63.1423 187.247 62.5857 187.247 61.9435C187.247 61.3013 187.362 60.7091 187.586 60.2239C187.81 59.7386 188.129 59.3676 188.537 59.1036C188.944 58.8396 189.426 58.7111 189.983 58.7111C190.54 58.7111 191.043 58.8467 191.443 59.125C191.844 59.4033 192.149 59.7957 192.36 60.3095C192.564 60.8233 192.659 61.4369 192.645 62.1433H191.844V61.8508C191.83 61.0659 191.667 60.4736 191.362 60.0669C191.056 59.6673 190.601 59.4675 190.01 59.4675C189.42 59.4675 188.917 59.6816 188.584 60.1026C188.252 60.5236 188.089 61.1301 188.089 61.915C188.089 62.6999 188.252 63.2708 188.584 63.6918C188.917 64.1128 189.379 64.3268 189.99 64.3268C190.404 64.3268 190.764 64.2269 191.076 64.0271C191.382 63.8273 191.627 63.5348 191.803 63.1566L192.536 63.4563C192.306 63.9843 191.973 64.3911 191.531 64.6836C191.09 64.9762 190.588 65.1189 190.024 65.1189H190.004ZM187.797 62.1433V61.4512H192.211V62.1433H187.797Z" fill="#010101"/>
    <path d="M193.806 64.9477V58.8824H194.513V60.3452L194.377 60.1525C194.438 59.9742 194.526 59.81 194.628 59.6531C194.73 59.5032 194.845 59.3748 194.968 59.282C195.117 59.1464 195.293 59.0394 195.49 58.968C195.687 58.8967 195.891 58.8539 196.095 58.8396C196.298 58.8253 196.482 58.8396 196.652 58.8895V59.6673C196.441 59.6102 196.21 59.596 195.959 59.6245C195.708 59.6531 195.477 59.7601 195.266 59.9385C195.076 60.0955 194.927 60.281 194.832 60.5022C194.737 60.7234 194.669 60.9517 194.642 61.2015C194.608 61.4441 194.594 61.6867 194.594 61.9293V64.9548H193.806V64.9477Z" fill="#010101"/>
  </g>
  <defs>
    <clipPath id="clip0_1460_2123">
      <rect width="196.303" height="83.2438" fill="white" transform="translate(0.348511 0.656006)"/>
    </clipPath>
  </defs>
</svg>
