<svg width="18" height="23" viewBox="0 0 18 23" fill="none" xmlns="http://www.w3.org/2000/svg">
  <path d="M17.99 17.5479C17.9915 15.6395 17.2001 13.8564 15.8809 12.7958V9.37359C15.8809 4.87056 12.9043 1.0797 9.24667 0.922137C7.3782 0.83993 5.56223 1.67522 4.21592 3.23586C2.86962 4.7965 2.10934 6.9485 2.10916 9.19729V12.7929C0.789194 13.8539 -0.00238086 15.6386 5.37974e-06 17.5481V18.2573V18.2571C5.37974e-06 18.5079 0.0827984 18.7483 0.230113 18.9255C0.377606 19.1029 0.577558 19.2025 0.785919 19.2025H5.5888C5.82421 20.4506 6.51967 21.5014 7.47809 22.0574C8.43671 22.613 9.55342 22.613 10.5121 22.0574C11.4705 21.5015 12.166 20.4505 12.4014 19.2025H17.2042C17.4126 19.2025 17.6126 19.1029 17.7601 18.9255C17.9074 18.7483 17.9902 18.5079 17.9902 18.2571L17.99 17.5479ZM8.99485 20.5699C8.62383 20.5694 8.26069 20.4402 7.94921 20.1977C7.63778 19.9551 7.39121 19.6093 7.23933 19.2022H10.7503C10.5984 19.6093 10.3519 19.9551 10.0404 20.1977C9.72901 20.4402 9.36584 20.5694 8.9948 20.5699H8.99485ZM1.57974 17.3114C1.64389 15.9813 2.27919 14.7875 3.25666 14.1602C3.38532 14.0808 3.49334 13.9604 3.56864 13.8118C3.64395 13.6634 3.68379 13.4928 3.68379 13.319V9.19706C3.68434 7.46321 4.27066 5.80404 5.30806 4.60016C6.34566 3.39623 7.74549 2.75113 9.18626 2.81263C12.0082 2.93243 14.3036 5.87573 14.3036 9.37336V13.3282C14.3034 13.4996 14.3421 13.668 14.4156 13.8151C14.4889 13.9623 14.5942 14.0826 14.7201 14.1633C15.7006 14.788 16.3392 15.9824 16.4049 17.3145L1.57974 17.3114Z" fill="currentColor"/>
</svg>
