<svg width="36" height="39" viewBox="0 0 36 39" fill="none" xmlns="http://www.w3.org/2000/svg">
  <g clip-path="url(#clip0_2274_438)">
    <path d="M19.4614 18.5624L25.7233 12.3199L5.49765 0.987439C4.15718 0.265439 2.90141 0.164106 1.80023 0.953662L19.4614 18.5624ZM26.7906 25.8711L33.3002 22.221C34.5708 21.5117 35.2675 20.5068 35.2675 19.3921C35.2675 18.2796 34.5708 17.2726 33.3023 16.5632L27.4089 13.2636L20.7744 19.8756L26.7906 25.8711ZM0.711764 2.48844C0.576235 2.90433 0.5 3.36877 0.5 3.87755V34.9214C0.5 35.7258 0.677882 36.4182 0.999765 36.9692L18.1464 19.8734L0.711764 2.48844ZM19.4614 21.1823L2.41012 38.1831C2.73624 38.3077 3.08776 38.3731 3.45835 38.3731C4.11906 38.3731 4.80729 38.1789 5.50823 37.7904L25.1071 26.819L19.4614 21.1823Z" fill="#252B42"/>
  </g>
  <defs>
    <clipPath id="clip0_2274_438">
      <rect width="35" height="38.0001" fill="white" transform="translate(0.5 0.373047)"/>
    </clipPath>
  </defs>
</svg>
