<svg width="23" height="24" viewBox="0 0 23 24" fill="none" xmlns="http://www.w3.org/2000/svg">
  <path d="M11.5 0.375C5.14933 0.375 0 5.52433 0 11.875C0 18.2257 5.14933 23.375 11.5 23.375C17.8507 23.375 23 18.2257 23 11.875C23 5.52433 17.8507 0.375 11.5 0.375ZM11.5 21.4241C6.22746 21.4241 1.95089 17.1475 1.95089 11.875C1.95089 6.60246 6.22746 2.32589 11.5 2.32589C16.7725 2.32589 21.0491 6.60246 21.0491 11.875C21.0491 17.1475 16.7725 21.4241 11.5 21.4241Z" fill="black"/>
  <path d="M10.268 16.3929C10.268 16.7196 10.3978 17.033 10.6289 17.2641C10.8599 17.4952 11.1733 17.625 11.5001 17.625C11.8269 17.625 12.1403 17.4952 12.3714 17.2641C12.6024 17.033 12.7323 16.7196 12.7323 16.3929C12.7323 16.0661 12.6024 15.7527 12.3714 15.5216C12.1403 15.2905 11.8269 15.1607 11.5001 15.1607C11.1733 15.1607 10.8599 15.2905 10.6289 15.5216C10.3978 15.7527 10.268 16.0661 10.268 16.3929ZM10.884 13.5179H12.1162C12.2291 13.5179 12.3215 13.4254 12.3215 13.3125V6.33036C12.3215 6.21741 12.2291 6.125 12.1162 6.125H10.884C10.7711 6.125 10.6787 6.21741 10.6787 6.33036V13.3125C10.6787 13.4254 10.7711 13.5179 10.884 13.5179Z" fill="black"/>
</svg>
