<svg xmlns="http://www.w3.org/2000/svg" width="46" height="60" viewBox="0 0 46 60" fill="none">
  <g clip-path="url(#clip0_3036_999)">
    <path d="M23.1538 10.2304C16.4336 10.2304 10.9626 15.6977 10.9626 22.4215C10.9626 29.1454 16.4299 34.6127 23.1538 34.6127C29.8776 34.6127 35.3449 29.1454 35.3449 22.4215C35.3449 15.6977 29.8776 10.2304 23.1538 10.2304Z" fill="#00ff00"/>
    <path d="M22.9989 0.804993C10.5491 0.804993 0.456055 10.8981 0.456055 23.3479C0.456055 33.9633 16.8459 53.1695 21.6748 58.5977C22.3814 59.3914 23.6165 59.3914 24.3231 58.5977C29.154 53.1695 45.5438 33.9633 45.5438 23.3479C45.5438 10.8981 35.4508 0.804993 22.9989 0.804993ZM22.9989 33.4126C16.854 33.4126 11.853 28.4116 11.853 22.2667C11.853 16.1218 16.854 11.1208 22.9989 11.1208C29.1439 11.1208 34.1448 16.1218 34.1448 22.2667C34.1448 28.4116 29.1439 33.4126 22.9989 33.4126Z" fill="#ffffff"/>
  </g>
  <defs fill="#ffffff">
    <clipPath id="clip0_3036_999" fill="#ffffff">
      <rect width="45.0878" height="58.39" fill="white" transform="translate(0.456055 0.804993)"/>
    </clipPath>
  </defs>
</svg>