<svg width="28" height="46" viewBox="0 0 28 46" fill="none" xmlns="http://www.w3.org/2000/svg">
  <path d="M16.3644 0C13.7728 0 11.6647 2.10777 11.6647 4.69927C11.6654 7.3072 13.7732 9.39854 16.3644 9.39854C18.9723 9.39854 21.0857 7.30683 21.0857 4.69927C21.0857 2.10768 18.9723 0 16.3644 0ZM15.6645 10.7807H14.8905H15.6834H15.6645ZM14.8823 10.7807L13.642 10.7857C12.0772 10.7857 10.3189 11.2 9.01717 11.8974H9.02216C6.20176 13.4561 4.33174 14.8622 3.15848 16.8127C1.76735 19.1251 1.63903 21.7437 1.6497 25.3445H1.65006C1.64436 25.8387 1.83688 26.3139 2.18484 26.6647C2.53245 27.0156 3.00627 27.2123 3.5004 27.2106C3.99418 27.2091 4.46694 27.0098 4.81276 26.6569C5.15823 26.3039 5.3479 25.8273 5.33934 25.3335C5.329 21.852 5.53079 20.0264 6.32012 18.7146C6.92299 17.7125 8.041 16.7413 10.1406 15.5113L8.44496 23.6178L8.30199 24.3013C8.08558 25.3366 8.22997 26.1184 8.8079 27.0144L12.0156 31.9858L12.9233 33.3926L20.2583 44.7611L20.2579 44.7607C20.6316 45.3593 21.2298 45.7828 21.9186 45.9365C22.6074 46.0906 23.329 45.9615 23.9218 45.579C24.5147 45.1964 24.9294 44.5921 25.073 43.9015C25.2167 43.2106 25.0777 42.4908 24.6866 41.9035L14.8395 26.6415L15.7372 22.8948L16.3943 20.1521L17.7648 14.4331H17.7655C18.2169 12.5368 16.6856 10.7859 14.8838 10.7848H14.8831L14.8823 10.7807ZM18.7213 16.5831L17.523 21.5843C17.5801 21.6435 17.6378 21.702 17.6963 21.7594C19.6225 23.6493 22.14 24.3819 25.6449 25.2069V25.2073C26.1241 25.3274 26.6311 25.2501 27.0528 24.9934C27.4742 24.7363 27.7755 24.3213 27.8885 23.8407C28.0019 23.3598 27.9177 22.8539 27.655 22.436C27.3922 22.0178 26.9726 21.7226 26.4906 21.6163C23.1015 20.8185 21.3727 20.1981 20.28 19.1264C19.7088 18.566 19.2079 17.772 18.7213 16.5838V16.5831ZM7.58004 27.7508L5.94076 35.5878L0.730194 41.6055V41.6059C0.260659 42.1325 0.0221458 42.8251 0.0677804 43.5293C0.113415 44.2331 0.439273 44.8894 0.972632 45.3511C1.50599 45.8132 2.2023 46.0417 2.90535 45.9861C3.60876 45.9308 4.26015 45.5953 4.71431 45.0556L10.3844 38.5074H10.3848C10.6857 38.1598 10.8907 37.7394 10.9787 37.2878L11.619 34.011L7.58004 27.7508Z" fill="black"/>
</svg>
