<svg width="36" height="44" viewBox="0 0 36 44" fill="none" xmlns="http://www.w3.org/2000/svg">
  <path d="M7.53637 3.67966L7.71214 2.24818C7.79219 1.59622 7.32856 1.0028 6.6766 0.922751C6.02867 0.843196 5.43771 1.30075 5.35248 1.94795L0.560792 38.3343C0.474315 38.991 0.939819 39.5922 1.59723 39.6729C2.24044 39.7519 2.8289 39.3025 2.92201 38.6612L4.98995 24.4187C13.08 27.1058 21.6797 24.2028 30.297 26.6108C31.5671 26.9657 32.9323 26.1687 33.093 24.8598L35.1274 8.29149C35.2344 7.41948 34.76 6.56952 33.9361 6.26438C25.0676 2.97968 17.76 6.70085 7.53637 3.67966ZM32.8973 12.2024C31.2183 11.6249 30.3366 11.4637 28.6127 11.2521L28.0804 15.5879C29.8042 15.7996 30.6859 15.9608 32.3649 16.5383L31.8325 20.8741C30.1535 20.2966 29.2719 20.1355 27.548 19.9238L27.0156 24.2597C25.2917 24.048 24.3972 23.9911 22.6477 23.9886L23.18 19.6527C21.4305 19.6498 20.5296 19.6454 18.7736 19.695L18.2412 24.0308C16.4853 24.0804 15.578 24.1281 13.8348 24.0731L14.3672 19.7372C12.6177 19.7344 11.7232 19.6778 9.99927 19.4661L9.46689 23.802C7.74299 23.5903 6.86132 23.4292 5.18235 22.8517L5.71473 18.5158C7.3937 19.0933 8.27537 19.2545 9.99927 19.4661L10.5316 15.1303C8.80775 14.9186 7.92608 14.7575 6.2471 14.1799L6.77948 9.84408C8.45845 10.4216 9.34012 10.5828 11.064 10.7944L11.5964 6.45856C13.3203 6.67023 14.2148 6.72716 15.9643 6.72966L15.432 11.0655C17.1815 11.0684 18.0824 11.0729 19.8384 11.0233L20.3708 6.68739C22.1267 6.63779 23.0276 6.64225 24.7772 6.64512L24.2448 10.981C25.9943 10.9838 26.8888 11.0404 28.6127 11.2521L29.1451 6.91622C30.869 7.12789 31.7507 7.28904 33.4296 7.86656L32.8973 12.2024Z" fill="black"/>
  <path d="M15.5364 11.0782C13.7869 11.0753 12.8924 11.0187 11.1685 10.8071L10.6361 15.1429C12.36 15.3546 13.2545 15.4115 15.004 15.414L15.5364 11.0782Z" fill="black"/>
  <path d="M23.7711 15.2709L24.3035 10.935C22.554 10.9322 21.6531 10.9277 19.8971 10.9773L19.3647 15.3132C21.1142 15.316 22.0219 15.2684 23.7711 15.2709Z" fill="black"/>
  <path d="M15.0041 15.4141L14.4718 19.7499C16.2213 19.7528 17.1222 19.7573 18.8782 19.7077L19.4106 15.3718C17.6088 15.3629 16.7537 15.4169 15.0041 15.4141Z" fill="black"/>
  <path d="M23.2386 19.6067C24.9882 19.6096 25.8827 19.6662 27.6066 19.8778L28.139 15.542C26.4151 15.3303 25.5206 15.2734 23.771 15.2709L23.2386 19.6067Z" fill="black"/>
</svg>
