<svg width="296" height="296" viewBox="0 0 296 296" fill="none" xmlns="http://www.w3.org/2000/svg">
  <g clip-path="url(#clip0_3076_699)">
    <path fill-rule="evenodd" clip-rule="evenodd" d="M295.04 144.48C296.733 225.946 232.063 293.36 150.596 295.052C69.1299 296.744 1.71636 232.075 0.0241065 150.608C-1.66815 69.1416 63.0017 1.72814 144.468 0.0358863C225.935 -1.65637 293.348 63.0134 295.04 144.48ZM212.79 101.63C218.3 100.7 223.95 99.3 229.06 96.99C229.468 96.8045 229.624 96.6878 229.683 96.725C229.72 96.748 229.72 96.8297 229.72 96.99V97.13C229.72 97.54 229.71 98.55 228.87 99.69C225.11 104.75 221.05 109.28 216.01 113.07C215.867 113.178 215.705 113.286 215.537 113.399C214.846 113.861 214.05 114.393 214.05 115.23C214.05 141.8 207.26 168.34 187.89 187.58C163.23 212.09 126.23 218.75 93.38 209.68C87.02 207.93 80.94 205.46 75.1 202.37C73.16 201.31 71.27 200.22 69.4 198.99C68.93 198.61 68.58 198.26 68.98 198.01C69.38 197.81 69.69 197.79 71.16 198.01C80.34 198.91 89.81 197.55 98.5 194.51C98.7595 194.419 99.0352 194.324 99.325 194.223C104.373 192.472 113.701 189.235 116.5 184.97C116.533 184.922 116.567 184.897 116.6 184.872C116.637 184.845 116.673 184.818 116.71 184.76C116.026 184.6 115.341 184.532 114.659 184.463C114.145 184.412 113.631 184.36 113.12 184.27C104.2 181.72 92.28 177.24 86.76 162.19C86.41 161.31 86.76 160.85 87.67 161.03C95.02 161.6 97.66 161.2 100.22 160.64C98.78 160.39 97.31 159.9 95.97 159.34C84.73 155.06 76.52 144.1 75.02 132.24C74.85 130.87 74.74 129.7 74.81 128.44C74.88 127.56 75.27 127.28 76.04 127.77C81.82 130.76 88.3 131.47 88.83 131.36C87.4 130.23 86.06 129 84.76 127.77C75.01 118.54 71.23 99.75 79.03 88.05C79.67 87.1 80.09 87.1 80.86 87.98C98.69 108.29 120.66 117.78 147.16 121.72C147.86 121.83 147.93 121.72 147.83 120.95C147.14 116.29 147.05 111.72 148.18 107.1C149.35 102.32 151.63 97.8 154.73 93.98C157.72 90.29 161.49 87.22 165.7 85.02C169.91 82.82 174.56 81.49 179.3 81.18C184.17 80.87 189.11 81.65 193.63 83.49C197.08 84.9 200.13 86.8 202.98 89.22C203.568 89.7004 204.089 90.2866 204.637 90.9032L204.67 90.94C205.02 91.29 205.44 91.43 206 91.29C212.77 89.6 219.14 87.21 225.29 83.91C225.57 83.77 225.8 83.7 226.15 83.84C226.43 84.06 226.33 84.41 226.19 84.69C225.09 88.29 223.14 91.62 220.79 94.54C219.25 96.45 215.41 101.19 212.79 101.63Z" fill="black"/>
  </g>
  <defs>
    <clipPath id="clip0_3076_699">
      <rect width="295.08" height="295.08" fill="white"/>
    </clipPath>
  </defs>
</svg>
