<svg width="46" height="60" viewBox="0 0 46 60" fill="none" xmlns="http://www.w3.org/2000/svg">
  <g clip-path="url(#clip0_3042_698)">
    <g clip-path="url(#clip1_3042_698)">
      <path d="M21.8799 6.39771C13.7492 6.39771 7.12988 13.0125 7.12988 21.1477C7.12988 29.2829 13.7447 35.8977 21.8799 35.8977C30.0151 35.8977 36.6299 29.2829 36.6299 21.1477C36.6299 13.0125 30.0151 6.39771 21.8799 6.39771Z" fill="#FF7410"/>
      <path d="M22.9989 0.804993C10.5491 0.804993 0.456055 10.8981 0.456055 23.3479C0.456055 33.9633 16.8459 53.1695 21.6748 58.5977C22.3814 59.3914 23.6165 59.3914 24.3231 58.5977C29.154 53.1695 45.5438 33.9633 45.5438 23.3479C45.5438 10.8981 35.4508 0.804993 22.9989 0.804993ZM22.9989 33.4126C16.854 33.4126 11.853 28.4116 11.853 22.2667C11.853 16.1218 16.854 11.1208 22.9989 11.1208C29.1439 11.1208 34.1448 16.1218 34.1448 22.2667C34.1448 28.4116 29.1439 33.4126 22.9989 33.4126Z" fill="black"/>
    </g>
  </g>
  <defs>
    <clipPath id="clip0_3042_698">
      <rect width="45.0878" height="58.39" fill="white" transform="translate(0.456055 0.804993)"/>
    </clipPath>
    <clipPath id="clip1_3042_698">
      <rect width="45.0878" height="58.39" fill="white" transform="translate(0.456055 0.804993)"/>
    </clipPath>
  </defs>
</svg>
