<svg width="296" height="296" viewBox="0 0 296 296" fill="none" xmlns="http://www.w3.org/2000/svg">
  <g clip-path="url(#clip0_3076_707)">
    <path fill-rule="evenodd" clip-rule="evenodd" d="M251.87 251.867C309.488 194.249 309.488 100.831 251.87 43.2135C194.252 -14.4045 100.834 -14.4045 43.2165 43.2135C-14.4014 100.831 -14.4014 194.249 43.2165 251.867C100.834 309.484 194.252 309.484 251.87 251.867ZM110.99 154.86C112.64 204.77 130.99 238.95 147.54 238.95C164.09 238.95 182.44 204.77 184.09 154.86H110.99ZM110.99 140.22C112.65 90.31 130.99 56.13 147.54 56.13C164.09 56.13 182.44 90.31 184.09 140.22H110.99ZM198.74 140.22H245.97C242.78 96.68 211.36 61 169.93 51.39C186.36 67.03 197.53 99.88 198.74 140.22ZM169.93 243.69C186.36 228.05 197.53 195.2 198.74 154.86H245.97C242.78 198.4 211.36 234.08 169.93 243.69ZM96.34 154.86H49.11C52.3 198.4 83.72 234.08 125.15 243.69C108.72 228.05 97.55 195.2 96.34 154.86ZM125.15 51.39C108.72 67.03 97.55 99.88 96.34 140.22H49.11C52.3 96.68 83.72 61 125.15 51.39Z" fill="black"/>
  </g>
  <defs>
    <clipPath id="clip0_3076_707">
      <rect width="295.08" height="295.08" fill="white"/>
    </clipPath>
  </defs>
</svg>
