<svg width="46" height="62" viewBox="0 0 46 62" fill="none" xmlns="http://www.w3.org/2000/svg">
  <path d="M23.1538 10.2304C16.4336 10.2304 10.9626 15.6977 10.9626 22.4215C10.9626 29.1454 16.4299 34.6127 23.1538 34.6127C29.8776 34.6127 35.3449 29.1454 35.3449 22.4215C35.3449 15.6977 29.8776 10.2304 23.1538 10.2304Z" fill="#70FF00"/>
  <path d="M23.1099 9.97375C16.3572 9.97375 10.8599 15.4674 10.8599 22.2238C10.8599 28.9801 16.3535 34.4737 23.1099 34.4737C29.8662 34.4737 35.3599 28.9801 35.3599 22.2238C35.3599 15.4674 29.8662 9.97375 23.1099 9.97375Z" fill="#010101"/>
  <path d="M23.1527 0.804993C10.7029 0.804993 0.609863 10.8981 0.609863 23.3479C0.609863 33.9633 16.9997 53.1695 21.8286 58.5977C22.5352 59.3914 23.7703 59.3914 24.4769 58.5977C29.3078 53.1695 45.6977 33.9633 45.6977 23.3479C45.6977 10.8981 35.6046 0.804993 23.1527 0.804993ZM23.1527 33.4126C17.0078 33.4126 12.0068 28.4116 12.0068 22.2667C12.0068 16.1218 17.0078 11.1208 23.1527 11.1208C29.2977 11.1208 34.2987 16.1218 34.2987 22.2667C34.2987 28.4116 29.2977 33.4126 23.1527 33.4126Z" fill="#FF7410"/>
  <ellipse cx="23.1538" cy="58.818" rx="9.33621" ry="2.375" fill="#FF7410"/>
</svg>
