<svg width="12" height="13" viewBox="0 0 12 13" fill="none" xmlns="http://www.w3.org/2000/svg">
  <path fill-rule="evenodd" clip-rule="evenodd" d="M10.8071 11.2033V7.31453C10.8071 7.04744 11.0141 6.83085 11.2733 6.83085C11.5308 6.83085 11.7395 7.04696 11.7395 7.31453V11.6913C11.7395 11.9584 11.5326 12.175 11.2733 12.175H11.2732H11.273H1.01715H1.01699H1.01684C0.888212 12.175 0.771677 12.1207 0.68732 12.0328C0.602794 11.9457 0.550659 11.8242 0.550659 11.6892V11.6891V11.6889V1.0014V1.00124V1.00108C0.550659 0.732753 0.758034 0.515277 1.0148 0.515277H5.21486C5.47116 0.515277 5.679 0.73088 5.679 1.00108C5.679 1.2694 5.47162 1.48696 5.21486 1.48696H1.48314V11.2033L10.8071 11.2033ZM10.8071 2.17379L4.8106 8.42263C4.62812 8.61279 4.33381 8.61449 4.15047 8.42344C3.96838 8.23369 3.96901 7.92553 4.15125 7.73553L10.1477 1.4867H8.47462C8.21792 1.4867 8.00976 1.27101 8.00976 1.00081C8.00976 0.732491 8.21832 0.515015 8.47462 0.515015H11.2747C11.4028 0.515015 11.5189 0.568694 11.6029 0.656126C11.6875 0.745184 11.7395 0.866128 11.7395 0.999425V3.9173C11.7395 4.18481 11.5326 4.40172 11.2733 4.40172C11.0159 4.40172 10.8071 4.18439 10.8071 3.9173L10.8071 2.17379Z" fill="currentColor"/>
</svg>
